# AST/ASF file generated using VICON BodyLanguage
# -----------------------------------------------
:version 1.10
:name VICON
:units
  mass 1.0
  length 0.45
  angle deg
:documentation
   .ast/.asf automatically generated from VICON data using
   VICON BodyBuilder and BodyLanguage model FoxedUp or BRILLIANT.MOD
:root
   order TX TY TZ RX RY RZ
   axis XYZ
   position 0 0 0  
   orientation 0 0 0 
:bonedata
  begin
     id 1 
     name lhipjoint
     direction 0.570549 -0.739093 0.358072 
     length 2.41801 
     axis 0 0 0  XYZ
  end
  begin
     id 2 
     name lfemur
     direction 0.34202 -0.939693 0  
     length 7.44434  
     axis 0 0 20  XYZ
    dof rx ry rz
    limits (-160.0 20.0)
           (-70.0 70.0)
           (-60.0 70.0)
  end
  begin
     id 3 
     name ltibia
     direction 0.34202 -0.939693 0   
     length 7.60047   
     axis 0 0 20   XYZ
    dof rx
    limits (-10.0 170.0)
  end
  begin
     id 4 
     name lfoot
     direction 0.0909041 -0.249757 0.964032   
     length 2.03437   
     axis -90 7.62852e-016 20   XYZ
    dof rx rz
    limits (-45.0 90.0)
           (-70.0 20.0)
  end
  begin
     id 5 
     name ltoes
     direction 1.53547e-011 -4.2174e-011 1   
     length 1.02054   
     axis -90 7.62852e-016 20   XYZ
    dof rx
    limits (-90.0 20.0)
  end
  begin
     id 6 
     name rhipjoint
     direction -0.558096 -0.746754 0.361784   
     length 2.3932  
     axis 0 0 0  XYZ 
  end
  begin
     id 7 
     name rfemur
     direction -0.34202 -0.939693 0   
     length 7.3886   
     axis 0 0 -20   XYZ
    dof rx ry rz
    limits (-160.0 20.0)
           (-70.0 70.0)
           (-70.0 60.0)
  end
  begin
     id 8 
     name rtibia
     direction -0.34202 -0.939693 0   
     length 7.4839   
     axis 0 0 -20   XYZ
    dof rx
    limits (-10.0 170.0)
 end
 begin
     id 9 
     name rfoot
     direction -0.114619 -0.314914 0.942174   
     length 2.25127  
     axis -90 -7.62852e-016 -20   XYZ
    dof rx rz
    limits (-45.0 90.0)
           (-20.0 70.0)
  end
  begin
     id 10 
     name rtoes
     direction -1.53518e-011 -4.21881e-011 1   
     length 1.11821   
     axis -90 -7.62852e-016 -20   XYZ
    dof rx
    limits (-90.0 20.0)
  end
  begin
     id 11 
     name lowerback
     direction -0.00902269 0.996426 -0.0839821   
     length 2.25052   
     axis 0 0 0   XYZ
    dof rx ry rz
    limits (-20.0 45.0)
           (-30.0 30.0)
           (-30.0 30.0)
  end
  begin
     id 12 
     name upperback
     direction 0.0370973 0.999169 -0.0168941   
     length 2.24876   
     axis 0 0 0   XYZ
    dof rx ry rz
    limits (-20.0 45.0)
           (-30.0 30.0)
           (-30.0 30.0)
  end
  begin
     id 13 
     name thorax
     direction 0.0402726 0.998931 0.0227027   
     length 2.26408   
     axis 0 0 0   XYZ
    dof rx ry rz
    limits (-20.0 45.0)
           (-30.0 30.0)
           (-30.0 30.0)
  end
  begin
     id 14 
     name lowerneck
     direction -0.0733697 0.98508 0.155675   
     length 1.58204   
     axis 0 0 0   XYZ
    dof rx ry rz
    limits (-20.0 45.0)
           (-30.0 30.0)
           (-30.0 30.0)
  end
  begin
     id 15 
     name upperneck
     direction 0.0426554 0.993501 -0.105526   
     length 1.61222   
     axis 0 0 0   XYZ
    dof rx ry rz
    limits (-20.0 45.0)
           (-30.0 30.0)
           (-30.0 30.0)
  end
  begin
     id 16
     name head
     direction 0.020792 0.998384 -0.0528868  
     length 1.61527  
     axis 0 0 0   XYZ
    dof rx ry rz
    limits (-20.0 45.0)
           (-30.0 30.0)
           (-30.0 30.0)
  end
  begin
     id 17 
     name lclavicle
     direction 0.967109 0.155462 -0.201325  
     length 3.59357  
     axis 0 0 0   XYZ
    dof ry rz
    limits (-20.0 10.0)
           (0.0 20.0)
  end
  begin
     id 18 
     name lhumerus
     direction 1 -4.48968e-011 2.38195e-027   
     length 5.38154   
     axis 180 -30 -90   XYZ
    dof rx ry rz
    limits (-60.0 90.0)
           (-90.0 90.0)
           (-90.0 90.0)
  end
  begin
     id 19
     name lradius
     direction 1 -4.48961e-011 4.85371e-027   
     length 3.33312   
     axis 180 -30 -90   XYZ
    dof rx
    limits (-10.0 170.0)
  end
  begin
     id 20
     name lwrist
     direction 1 -4.48961e-011 4.76515e-027   
     length 1.66656   
     axis -3.27502e-015 90 90   XYZ
    dof ry
    limits (-180.0 0.0)
 end
  begin
     id 21 
     name lhand
     direction 1 -4.48951e-011 9.53074e-027   
     length 0.710789   
     axis -6.08098e-015 90 90   XYZ
    dof rx rz
    limits (-90.0 90.0)
           (-45.0 45.0)
  end
  begin
     id 22 
     name lfingers
     direction 1 -4.48953e-011 1.90613e-026   
     length 0.573057   
     axis -1.21619e-014 90 90   XYZ
    dof rx
    limits (0.0 90.0)
  end
  begin
     id 23
     name lthumb
     direction 0.707107 -6.34973e-011 0.707107   
     length 0.822798   
     axis -90 45 -9.86923e-015   XYZ
    dof rx rz
    limits (-45.0 45.0)
           (-45.0 45.0)
  end
  begin
     id 24 
     name rclavicle
     direction -0.9585 0.265289 -0.104398   
     length 3.42039  
     axis 0 0 0   XYZ 
    dof ry rz
    limits (-10.0 20.0)
           (-20.0 0.0)
  end
  begin
     id 25 
     name rhumerus
     direction -1 -4.48977e-011 2.21478e-027  
     length 5.16954   
     axis 180 30 90   XYZ
    dof rx ry rz
    limits (-90.0 60.0)
           (-90.0 90.0)
           (-90.0 90.0)
  end
  begin
     id 26 
     name rradius
     direction -1 -4.48967e-011 5.63677e-027   
     length 3.38287   
     axis 180 30 90   XYZ
    dof rx
    limits (-10.0 170.0)
  end
  begin
     id 27 
     name rwrist
     direction -1 -4.48967e-011 4.76501e-027   
     length 1.69144   
     axis -3.27502e-015 -90 -90   XYZ
    dof ry
    limits (-180.0 0.0)
  end
  begin
     id 28
     name rhand
     direction -1 -4.48902e-011 9.53292e-027   
     length 0.817967   
     axis -6.08098e-015 -90 -90   XYZ
    dof rx rz
    limits (-90.0 90.0)
           (-45.0 45.0)
  end
  begin
     id 29
     name rfingers
     direction -1 -4.49012e-011 1.90561e-026   
     length 0.659466   
     axis -1.21619e-014 -90 -90   XYZ
    dof rx
    limits (0.0 90.0)
  end
  begin
     id 30
     name rthumb
     direction -0.707107 -6.34944e-011 0.707107   
     length 0.946865   
     axis -90 -45 9.86923e-015   XYZ
    dof rx rz
    limits (-45.0 45.0)
           (-45.0 45.0)
  end
:hierarchy
  begin
    root lhipjoint rhipjoint lowerback
    lhipjoint lfemur
    lfemur ltibia
    ltibia lfoot
    lfoot ltoes
    rhipjoint rfemur
    rfemur rtibia
    rtibia rfoot
    rfoot rtoes
    lowerback upperback
    upperback thorax
    thorax lowerneck lclavicle rclavicle
    lowerneck upperneck
    upperneck head
    lclavicle lhumerus
    lhumerus lradius
    lradius lwrist
    lwrist lhand lthumb
    lhand lfingers
    rclavicle rhumerus
    rhumerus rradius
    rradius rwrist
    rwrist rhand rthumb
    rhand rfingers
  end

#!OML:ASF F:\twosubjects\two\wednesday\Session 1\Justin1.ASF
:FULLY-SPECIFIED
:DEGREES
227
root 2.10776 17.6017 18.7692 2.8451 8.16402 1.44574
lowerback 1.44796 -1.01208 -3.23811
upperback -0.134745 -1.38621 2.27339
thorax -0.81719 -0.674483 4.18697
lowerneck -13.1465 -5.15288 -8.91809
upperneck 14.5539 -6.52903 7.60124
head 7.16639 -2.98622 3.26207
rclavicle 6.21202e-015 -5.56597e-015
rhumerus -5.15038 -11.9991 -77.2443
rradius 42.5723
rwrist -29.3702
rhand -15.7638 16.1792
rfingers 7.12502
rthumb 10.428 -13.5422
lclavicle 6.21202e-015 -5.56597e-015
lhumerus -43.1688 29.355 69.0562
lradius 15.1136
lwrist -23.5369
lhand 2.25749 39.9916
lfingers 7.12502
lthumb 27.7508 67.9633
rfemur -35.0094 -4.61042 21.6853
rtibia 27.7145
rfoot 10.8028 1.22193
rtoes -5.00904
lfemur 17.836 -5.39329 -22.0259
ltibia 17.565
lfoot 1.82743 -16.0559
ltoes -11.5006
228
root 2.0788 17.5966 18.9841 2.78229 7.79888 1.36633
lowerback 1.22174 -1.01058 -3.35718
upperback -0.103436 -1.38006 2.33844
thorax -0.654335 -0.675042 4.31645
lowerneck -12.6871 -4.88397 -9.22093
upperneck 14.1823 -6.21598 8.16646
head 6.96688 -2.81708 3.53937
rclavicle -1.42628e-014 -3.97569e-015
rhumerus -6.37501 -11.6758 -77.5993
rradius 41.7331
rwrist -29.1285
rhand -15.267 16.3617
rfingers 7.12502
rthumb 10.9072 -13.335
lclavicle -1.42628e-014 -3.97569e-015
lhumerus -42.735 31.0472 68.703
lradius 14.8649
lwrist -24.6207
lhand 2.67359 39.6752
lfingers 7.12502
lthumb 28.1486 67.5822
rfemur -34.0863 -2.88539 21.6298
rtibia 27.3873
rfoot 8.25554 3.57175
rtoes -2.38365
lfemur 17.5062 -5.39401 -21.7821
ltibia 19.2783
lfoot 3.35343 -16.4723
ltoes -13.3419
229
root 2.07414 17.5887 19.1921 2.80349 7.44261 1.12731
lowerback 1.02644 -1.1209 -3.03089
upperback -0.218377 -1.51758 2.38614
thorax -0.656272 -0.743014 4.17993
lowerneck -12.2125 -4.40696 -9.15271
upperneck 13.9362 -5.6422 8.40752
head 6.75661 -2.5302 3.6752
rclavicle -6.90777e-015 2.14687e-014
rhumerus -7.81413 -11.1878 -78.1614
rradius 40.9491
rwrist -28.7917
rhand -15.4166 16.509
rfingers 7.12502
rthumb 10.7629 -13.1953
lclavicle -6.90777e-015 2.14687e-014
lhumerus -42.4056 32.1722 68.8264
lradius 14.9058
lwrist -25.1918
lhand 2.66111 39.5734
lfingers 7.12502
lthumb 28.1367 67.4824
rfemur -33.2589 -1.96781 21.9348
rtibia 27.1319
rfoot 6.99547 0.641474
rtoes -2.30472
lfemur 16.8547 -5.47526 -21.425
ltibia 21.2489
lfoot 5.51863 -16.7865
ltoes -11.7407
230
root 2.06523 17.5734 19.4021 2.73071 7.06675 0.146985
lowerback 1.23877 -1.18355 -1.92769
upperback -0.687039 -1.58061 2.63551
thorax -1.27308 -0.762016 3.8279
lowerneck -13.5764 -4.66548 -8.18773
upperneck 15.5366 -5.9154 6.9588
head 7.46362 -2.69632 2.99727
rclavicle 3.77194e-014 -2.14687e-014
rhumerus -10.0095 -10.7653 -78.546
rradius 40.2623
rwrist -28.384
rhand -15.4524 16.812
rfingers 7.12502
rthumb 10.7284 -12.8941
lclavicle 3.77194e-014 -2.14687e-014
lhumerus -42.3938 32.0189 69.5099
lradius 15.4114
lwrist -24.2878
lhand 2.79554 40.1929
lfingers 7.12502
lthumb 28.2652 68.0806
rfemur -32.4483 -0.970959 23.1253
rtibia 27.3082
rfoot 5.01317 -1.18219
rtoes -1.29027
lfemur 15.9826 -5.4045 -20.1685
ltibia 23.2511
lfoot 8.82609 -16.8283
ltoes -6.29973
231
root 2.05896 17.5581 19.607 2.7466 6.79918 -0.189568
lowerback 1.24646 -1.06527 -1.16653
upperback -0.948035 -1.40555 2.53816
thorax -1.57954 -0.674669 3.29818
lowerneck -12.7511 -4.48587 -8.977
upperneck 15.075 -5.79124 8.29873
head 7.22238 -2.5857 3.59542
rclavicle 2.4202e-014 3.97569e-015
rhumerus -11.9447 -11.5222 -78.8602
rradius 39.443
rwrist -27.5637
rhand -14.7512 16.9992
rfingers 7.12502
rthumb 11.4047 -12.6706
lclavicle 2.4202e-014 3.97569e-015
lhumerus -41.4722 31.8746 70.1902
lradius 15.2002
lwrist -23.7117
lhand 2.71416 40.2239
lfingers 7.12502
lthumb 28.1874 68.1245
rfemur -31.9457 -0.897713 23.854
rtibia 27.8693
rfoot 3.23219 -1.37047
rtoes -2.55002
lfemur 15.1017 -5.36168 -19.6086
ltibia 25.1402
lfoot 12.4082 -16.9011
ltoes -3.72007
232
root 2.05702 17.5536 19.8004 2.88895 6.50501 -0.0521745
lowerback 1.13068 -0.869456 -0.788188
upperback -1.06975 -1.13842 2.30989
thorax -1.66845 -0.544535 2.84239
lowerneck -12.5232 -4.61326 -9.51561
upperneck 14.9165 -5.95599 8.78531
head 7.1784 -2.66012 3.82979
rclavicle -1.63873e-014 1.59028e-014
rhumerus -13.5502 -12.7215 -79.0506
rradius 38.4572
rwrist -26.5762
rhand -14.3168 17.0311
rfingers 7.12502
rthumb 11.8236 -12.6151
lclavicle -1.63873e-014 1.59028e-014
lhumerus -40.0796 31.8573 71.1435
lradius 14.8782
lwrist -23.3558
lhand 2.38389 40.1539
lfingers 7.12502
lthumb 27.8717 68.1062
rfemur -31.8595 -1.76504 24.2369
rtibia 28.5681
rfoot 2.14668 -0.693595
rtoes -2.0535
lfemur 14.1024 -5.28401 -19.5746
ltibia 26.9858
lfoot 16.0635 -16.9484
ltoes -2.6917
233
root 2.04416 17.56 19.9863 2.80491 5.81587 0.0954664
lowerback 1.40678 -0.745409 -0.889104
upperback -1.20552 -0.972408 2.2949
thorax -1.97086 -0.456054 2.88617
lowerneck -11.5753 -4.22829 -10.1661
upperneck 14.0655 -5.47545 9.60895
head 6.73299 -2.4247 4.26699
rclavicle -5.1684e-015 1.19271e-014
rhumerus -15.1007 -12.8526 -79.2338
rradius 37.2403
rwrist -25.9158
rhand -14.353 17.1552
rfingers 7.12502
rthumb 11.7887 -12.493
lclavicle -5.1684e-015 1.19271e-014
lhumerus -39.2764 31.847 72.2674
lradius 15.3826
lwrist -22.5409
lhand 2.26675 40.5914
lfingers 7.12502
lthumb 27.7597 68.5617
rfemur -31.5941 -2.09232 24.4536
rtibia 29.2526
rfoot 1.43453 0.125384
rtoes 1.56153
lfemur 13.0231 -4.8968 -19.5699
ltibia 28.9893
lfoot 19.8818 -16.5929
ltoes 0.375161
